#!OML:ASF I:\salsa\salsa 7_09\Patient 1\Session 1\dancermale.ASF
:FULLY-SPECIFIED
:DEGREES
1892
root 10.4196 17.4204 4.90918 -347.835 241.194 -363.703
lowerback -4.64831 4.02613 2.55462
upperback -1.42693 5.25214 -2.31442
thorax 1.57619 2.61827 -3.48121
lowerneck -4.24749 2.41982 2.17568
upperneck 12.5919 3.45357 -4.61011
head 4.5834 1.45665 -1.60082
rclavicle -6.47168e-014 -1.65488e-014
rhumerus -25.4863 27.3158 -65.2896
rradius 88.531
rwrist 44.4981
rhand -17.6662 3.30933
rfingers 7.12502
rthumb 8.5925 -26.4958
lclavicle -6.47168e-014 -1.65488e-014
lhumerus -39.289 -20.1238 103.066
lradius 113.759
lwrist 57.8475
lhand -21.9119 54.5193
lfingers 7.12502
lthumb 4.49386 804.452
rfemur -26.797 0.717103 7.07121
rtibia 35.6458
rfoot -12.286 -13.0365
rtoes -0.122205
lfemur -15.6341 -6.75284 -22.757
ltibia 18.654
lfoot 341.417 -2.65145
ltoes -6.57671
1893
root 10.4688 17.4416 4.78268 -347.843 242.787 -363.796
lowerback -4.5839 3.61903 2.51619
upperback -1.42629 4.71186 -2.32309
thorax 1.49464 2.34683 -3.51218
lowerneck -4.27249 2.41724 2.14187
upperneck 12.3739 3.43868 -4.48231
head 4.51781 1.46135 -1.55631
rclavicle -1.06163e-014 3.04141e-014
rhumerus -25.7654 26.8374 -63.7254
rradius 90.6809
rwrist 43.7709
rhand -17.4463 3.23299
rfingers 7.12502
rthumb 8.80464 -26.5633
lclavicle -1.06163e-014 3.04141e-014
lhumerus -38.6655 -22.0465 104.592
lradius 112.586
lwrist 58.9332
lhand -22.0192 54.6031
lfingers 7.12502
lthumb 4.39019 804.538
rfemur -25.146 3.70662 6.35104
rtibia 31.2477
rfoot -11.8401 -12.2803
rtoes 2.00131
lfemur -15.031 -7.21236 -22.0837
ltibia 17.6183
lfoot 341.634 -3.72231
ltoes -7.35086
1894
root 10.5161 17.4569 4.64821 -347.458 244.312 -364.284
lowerback -4.61422 3.18561 2.31435
upperback -1.44179 4.14096 -2.42719
thorax 1.44274 2.0588 -3.5454
lowerneck -4.25103 2.42647 2.25174
upperneck 12.0945 3.43829 -4.45423
head 4.43023 1.47544 -1.56594
rclavicle 8.65583e-014 1.15295e-014
rhumerus -26.0772 26.3434 -62.4254
rradius 92.6287
rwrist 43.3417
rhand -17.0489 2.96403
rfingers 7.12502
rthumb 9.18816 -26.8158
lclavicle 8.65583e-014 1.15295e-014
lhumerus -37.9437 -23.7049 105.854
lradius 111.351
lwrist 59.6061
lhand -22.7964 52.8263
lfingers 7.12502
lthumb 3.63976 802.775
rfemur -23.9439 5.87478 5.95989
rtibia 28.3836
rfoot -11.3881 -12.4115
rtoes 0.958212
lfemur -14.5485 -7.57175 -21.5783
ltibia 16.7363
lfoot 341.759 -4.75968
ltoes -8.11591
1895
root 10.5633 17.4673 4.50364 -346.725 245.725 -365.222
lowerback -4.61165 2.77322 1.89283
upperback -1.42545 3.60845 -2.61119
thorax 1.40156 1.78954 -3.53483
lowerneck -4.25857 2.37138 2.33801
upperneck 11.8517 3.34272 -4.32826
head 4.35348 1.44592 -1.54636
rclavicle 1.67973e-014 -1.11319e-014
rhumerus -26.4696 25.7242 -61.3363
rradius 94.4477
rwrist 43.127
rhand -16.3214 3.03145
rfingers 7.12502
rthumb 9.89004 -26.7162
lclavicle 1.67973e-014 -1.11319e-014
lhumerus -37.0189 -25.0731 106.8
lradius 110.045
lwrist 60.051
lhand -22.5318 51.9961
lfingers 7.12502
lthumb 3.89526 801.94
rfemur -22.8992 6.81484 5.95101
rtibia 27.3151
rfoot -11.8213 -13.9785
rtoes -1.39075
lfemur -14.0187 -7.81403 -21.2461
ltibia 15.8868
lfoot 341.888 -5.87926
ltoes -8.40769
1896
root 10.6098 17.4735 4.35089 -346.125 247.025 -365.959
lowerback -4.71119 2.383 1.55607
upperback -1.39326 3.1011 -2.78537
thorax 1.44328 1.53402 -3.55403
lowerneck -4.36422 2.37232 2.28813
upperneck 11.3801 3.28811 -3.87812
head 4.68971 1.45982 -1.55728
rclavicle -4.44035e-014 1.86858e-014
rhumerus -26.8921 25.0934 -60.5311
rradius 96.0845
rwrist 42.8109
rhand -15.7982 3.48342
rfingers 7.12502
rthumb 10.3949 -26.2396
lclavicle -4.44035e-014 1.86858e-014
lhumerus -35.8241 -26.0543 107.41
lradius 108.726
lwrist 60.9285
lhand -22.4209 51.3329
lfingers 7.12502
lthumb 4.00228 801.275
rfemur -22.0137 6.3941 6.59403
rtibia 27.3343
rfoot -12.6289 -14.5795
rtoes -3.46947
lfemur -13.5136 -7.99681 -20.7551
ltibia 14.9702
lfoot 342.105 -6.94694
ltoes -8.52355
1897
root 10.6532 17.4755 4.19292 -345.781 248.134 -366.333
lowerback -4.88596 2.04511 1.45483
upperback -1.42208 2.65108 -3.02364
thorax 1.48444 1.30595 -3.76809
lowerneck -4.33827 2.42879 2.30592
upperneck 11.2304 3.31963 -3.46416
head 4.61925 1.50125 -1.41516
rclavicle 3.57564e-014 7.95139e-015
rhumerus -27.3879 24.3061 -60.1399
rradius 97.5698
rwrist 42.6181
rhand -15.2667 4.31158
rfingers 7.12502
rthumb 10.9075 -25.3851
lclavicle 3.57564e-014 7.95139e-015
lhumerus -34.5306 -26.7547 107.654
lradius 107.576
lwrist 62.3864
lhand -22.818 50.514
lfingers 7.12502
lthumb 3.61884 800.463
rfemur -21.1629 5.83703 7.43708
rtibia 27.1207
rfoot -13.8356 -15.1601
rtoes -4.04637
lfemur -13.0936 -8.23375 -20.0728
ltibia 14.0943
lfoot 342.341 -7.59968
ltoes -10.1149
1898
root 10.6949 17.4741 4.03353 -345.507 249.066 -366.643
lowerback -5.01185 1.76221 1.52717
upperback -1.48503 2.26457 -3.40376
thorax 1.47821 1.10758 -4.22777
lowerneck -4.1884 2.45649 2.53295
upperneck 11.0015 3.29456 -3.03595
head 4.49844 1.52545 -1.31062
rclavicle 3.67752e-014 1.19271e-015
rhumerus -28.07 23.3511 -60.2114
rradius 99.0096
rwrist 42.4353
rhand -14.7588 5.11593
rfingers 7.12502
rthumb 11.3974 -24.5543
lclavicle 3.67752e-014 1.19271e-015
lhumerus -33.2483 -27.2428 107.602
lradius 106.646
lwrist 63.6458
lhand -23.0138 50.0714
lfingers 7.12502
lthumb 3.42974 800.024
rfemur -20.1405 5.61726 8.19732
rtibia 25.8765
rfoot -14.3058 -16.2926
rtoes -5.28439
lfemur -12.6812 -8.99657 -19.3841
ltibia 13.3398
lfoot 342.608 -7.51898
ltoes -12.9914
1899
root 10.7354 17.4752 3.87648 -345.599 249.86 -366.603
lowerback -5.17789 1.49314 1.79501
upperback -1.44909 1.89057 -3.77782
thorax 1.59713 0.920022 -4.79226
lowerneck -4.22453 2.54739 2.74592
upperneck 10.7639 3.36139 -2.65136
head 4.41662 1.59035 -1.21296
rclavicle -2.0276e-014 2.78299e-014
rhumerus -28.7537 22.5683 -60.6289
rradius 100.391
rwrist 42.0066
rhand -14.7304 5.12483
rfingers 7.12502
rthumb 11.4248 -24.5439
lclavicle -2.0276e-014 2.78299e-014
lhumerus -31.765 -27.3485 107.322
lradius 105.839
lwrist 64.1477
lhand -23.0785 49.7495
lfingers 7.12502
lthumb 3.36733 799.703
rfemur -18.6074 5.25321 9.00755
rtibia 23.6538
rfoot -14.0455 -17.0536
rtoes -6.37959
lfemur -12.32 -10.1866 -18.6076
ltibia 12.7923
lfoot 342.82 -6.92526
ltoes -13.7793
1900
root 10.7744 17.4791 3.72297 -346.307 250.378 -365.924
lowerback -5.05223 1.23026 2.0622
upperback -1.64014 1.51709 -3.9256
thorax 1.30428 0.72213 -5.12942
lowerneck -3.95866 2.74683 2.84614
upperneck 10.5134 3.61094 -2.50775
head 4.27959 1.7277 -1.17096
rclavicle -3.86885e-014 -1.43125e-014
rhumerus -29.6988 22.3108 -61.2604
rradius 101.761
rwrist 41.6864
rhand -14.8352 4.77186
rfingers 7.12502
rthumb 11.3237 -24.9024
lclavicle -3.86885e-014 -1.43125e-014
lhumerus -30.5846 -26.7134 107.235
lradius 105.111
lwrist 64.1687
lhand -23.3784 49.4188
lfingers 7.12502
lthumb 3.07768 799.376
rfemur -17.1724 4.795 9.95324
rtibia 21.5515
rfoot -13.6009 -16.9774
rtoes -7.45879
lfemur -12.1369 -10.9297 -17.6467
ltibia 12.6336
lfoot 342.802 -6.45418
ltoes -12.2062
1901
root 10.8143 17.4817 3.57045 -347.431 250.547 -364.815
lowerback -4.99445 1.14171 2.46815
upperback -1.74381 1.37455 -4.10325
thorax 1.16352 0.643779 -5.55964
lowerneck -3.74993 2.87258 2.98431
upperneck 10.1895 3.76062 -2.36823
head 4.12629 1.81758 -1.14278
rclavicle -2.00773e-014 1.03368e-014
rhumerus -30.591 21.6493 -62.0725
rradius 102.997
rwrist 41.7022
rhand -14.9415 4.88057
rfingers 7.12502
rthumb 11.2212 -24.7993
lclavicle -2.00773e-014 1.03368e-014
lhumerus -29.1923 -26.1426 106.964
lradius 104.21
lwrist 64.4915
lhand -23.928 49.194
lfingers 7.12502
lthumb 2.54688 799.159
rfemur -16.4735 4.36317 10.9913
rtibia 20.5876
rfoot -13.4893 -16.5262
rtoes -8.74783
lfemur -12.2258 -11.151 -16.5627
ltibia 13.0718
lfoot 342.508 -6.04126
ltoes -11.8407
1902
root 10.8597 17.489 3.41912 -348.749 250.553 -363.478
lowerback -4.9039 1.1224 2.87526
upperback -1.82501 1.32699 -4.26069
thorax 1.03593 0.613335 -5.96447
lowerneck -3.78093 2.96342 3.11324
upperneck 10.0741 3.85471 -2.17395
head 4.09223 1.87916 -1.09527
rclavicle -1.61513e-014 3.73715e-014
rhumerus -31.5526 20.865 -63.1355
rradius 104.065
rwrist 41.5337
rhand -15.395 5.2172
rfingers 7.12502
rthumb 10.7838 -24.486
lclavicle -1.61513e-014 3.73715e-014
lhumerus -27.7545 -25.5226 106.625
lradius 103.036
lwrist 65.4955
lhand -24.2388 48.7439
lfingers 7.12502
lthumb 2.24674 798.712
rfemur -16.5131 4.43197 12.1444
rtibia 20.8118
rfoot -13.8782 -16.5406
rtoes -8.94466
lfemur -12.6604 -11.5775 -15.4338
ltibia 14.1767
lfoot 342.019 -5.09527
ltoes -13.8259
1903
root 10.9061 17.4999 3.27172 -350.335 250.523 -361.872
lowerback -4.73006 1.09175 3.26926
upperback -1.95987 1.26664 -4.31042
thorax 0.800809 0.572605 -6.25085
lowerneck -3.65006 3.02182 3.30296
upperneck 9.88147 3.9163 -2.10452
head 4.00315 1.92175 -1.10434
rclavicle -1.40143e-014 -4.53229e-014
rhumerus -32.645 20.2157 -64.4608
rradius 104.971
rwrist 40.9491
rhand -16.1452 5.61394
rfingers 7.12502
rthumb 10.0601 -24.1256
lclavicle -1.40143e-014 -4.53229e-014
lhumerus -26.5359 -24.6743 106.417
lradius 101.652
lwrist 67.0614
lhand -24.065 48.2928
lfingers 7.12502
lthumb 2.41461 798.259
rfemur -16.52 4.32482 13.4237
rtibia 21.0067
rfoot -14.2173 -16.1948
rtoes -7.7549
lfemur -13.3097 -12.3387 -14.2881
ltibia 15.8109
lfoot 341.5 -3.62256
ltoes -16.5277
